#define logoround_width 48
#define logoround_height 47
static char logoround_bits[] = {
   0x00, 0x00, 0x00, 0x00, 0x00, 0x00, 0x00, 0x00, 0x00, 0x00, 0x00, 0x00,
   0x00, 0x00, 0x24, 0x09, 0x01, 0x00, 0x00, 0xa0, 0x1a, 0x54, 0x04, 0x00,
   0x00, 0x00, 0x00, 0x00, 0x00, 0x00, 0x00, 0x00, 0x00, 0x00, 0x00, 0x00,
   0x00, 0x80, 0x02, 0x00, 0x00, 0x00, 0x00, 0x00, 0x00, 0x00, 0x00, 0x00,
   0x00, 0x20, 0x05, 0x00, 0x00, 0x00, 0x00, 0x00, 0x08, 0x00, 0x00, 0x00,
   0x00, 0x20, 0x09, 0x00, 0x00, 0x00, 0xa0, 0x52, 0x15, 0xa8, 0x77, 0x09,
   0xa8, 0x92, 0xaa, 0x02, 0xf3, 0x0a, 0x00, 0x28, 0x05, 0x80, 0xfb, 0x00,
   0x00, 0xf3, 0x05, 0xc0, 0xa1, 0x00, 0x00, 0xe3, 0x01, 0xc0, 0x31, 0x00,
   0x80, 0xef, 0x00, 0xc0, 0x8d, 0x00, 0x00, 0xe3, 0x00, 0xc0, 0x2b, 0x00,
   0x00, 0xf8, 0xf8, 0xc0, 0x4b, 0x00, 0x00, 0xe7, 0xe0, 0x80, 0xcf, 0x00,
   0x00, 0xf7, 0xe0, 0x00, 0x7f, 0x00, 0x82, 0xeb, 0xe0, 0x03, 0x28, 0xa0,
   0x80, 0xe7, 0xe0, 0x00, 0x00, 0x00, 0x00, 0xe7, 0xe1, 0x1f, 0x00, 0x00,
   0x00, 0x10, 0xe0, 0xbd, 0x00, 0x00, 0x00, 0x00, 0xe0, 0x38, 0x00, 0x00,
   0x00, 0x08, 0xe0, 0x30, 0x00, 0x00, 0x00, 0x00, 0xe0, 0x30, 0x00, 0x00,
   0x00, 0x08, 0xe0, 0x30, 0x00, 0x00, 0xa8, 0x52, 0xe9, 0x32, 0x54, 0x25,
   0x54, 0x21, 0xe0, 0xb8, 0x21, 0x40, 0x00, 0x10, 0xe0, 0x38, 0x00, 0x00,
   0x00, 0x00, 0xe0, 0x1d, 0x00, 0x00, 0x00, 0x08, 0x00, 0x00, 0x00, 0x00,
   0x00, 0x00, 0x00, 0x80, 0x00, 0x00, 0x00, 0x10, 0x00, 0x00, 0x00, 0x00,
   0x00, 0x00, 0x00, 0x80, 0x00, 0x00, 0x00, 0x08, 0x00, 0x00, 0x00, 0x00,
   0x40, 0x51, 0x49, 0xa8, 0x81, 0x02, 0x80, 0x82, 0x1a, 0x68, 0x2a, 0x00,
   0x00, 0x50, 0x25, 0x00, 0x00, 0x00, 0x00, 0x40, 0x55, 0x55, 0x00, 0x00,
   0x00, 0x88, 0x4a, 0x15, 0x00, 0x00, 0x00, 0x00, 0x24, 0x25, 0x00, 0x00,
   0x00, 0x00, 0x00, 0x82, 0x00, 0x00, 0x00, 0x00, 0x00, 0x90, 0x00, 0x00,
   0x00, 0x00, 0x00, 0x00, 0x00, 0x00, };
