/* XPM */
static const char *logoround[] = {
/* columns rows colors chars-per-pixel */
"68 66 6 1",
". c #0000d1",
"X c #00b000",
"o c #d10000",
"O c #aeaeae",
"+ c #ffffffffffff",
"@ c None",
/* pixels */
"@@@@@@@@@@@@@@@@@@@@@@@@@@@@++++++++++++@@@@@@@@@@@@@@@@@@@@@@@@@@@@",
"@@@@@@@@@@@@@@@@@@@@@@@@++++++++++++++++++++@@@@@@@@@@@@@@@@@@@@@@@@",
"@@@@@@@@@@@@@@@@@@@@@++++++++++++++++++++++++++@@@@@@@@@@@@@@@@@@@@@",
"@@@@@@@@@@@@@@@@@@@OOOOOOOOOOOOOOOOOOOOOOOOOOOOOO@@@@@@@@@@@@@@@@@@@",
"@@@@@@@@@@@@@@@@@OOOOOOOOOOOOOOOOOOOOOOOOOOOOOOOOOO@@@@@@@@@@@@@@@@@",
"@@@@@@@@@@@@@@@++++++++++++++++++++++++++++++++++++++@@@@@@@@@@@@@@@",
"@@@@@@@@@@@@@@++++++++++++++++++++++++++++++++++++++++@@@@@@@@@@@@@@",
"@@@@@@@@@@@@++++++++++++++++++++++++++++++++++++++++++++@@@@@@@@@@@@",
"@@@@@@@@@@@++++++++++++++++++++++++++++++++++++++++++++++@@@@@@@@@@@",
"@@@@@@@@@@+++++++++++OOOOOO+++++++++++++++++++++++++++++++@@@@@@@@@@",
"@@@@@@@@@+++++++++++OOOOOOO++++++++++++++++++++++++++++++++@@@@@@@@@",
"@@@@@@@@+++++++++++OOOOOOOOO++++++++++++++++++++++++++++++++@@@@@@@@",
"@@@@@@@+++++++++++OOOOOOOOOO+++++++++++++++++++++++++++++++++@@@@@@@",
"@@@@@@@++++++++++OOOOOOOOOOOO++++++++++++++++++++++++++++++++@@@@@@@",
"@@@@@@+++++++++++OOOOOOOOOOOO+++++++++++++++++++++++++++++++++@@@@@@",
"@@@@@++++++++++++OOOOOOOOOOOO++++++++++++++++++......O+++++++++@@@@@",
"@@@@@OOOOOOOOOOOOOOOOOOOOOOOOOOOOOOOOOOOOOOOOO...OO....OOOOOOOO@@@@@",
"@@@@OOOOOOOOOOOOOOOOOOOOOOOOOOOOOOOOOOOOOOOOO...OOO....OOOOOOOOO@@@@",
"@@@+++++++++++++OOOOOOOOOOOO++++++++++++++++....OOO.....+++++++++@@@",
"@@@++++++++++XXXXXXXOOOOOOO++++++++++++++++....OOOO....OO++++++++@@@",
"@@@+++++++++XX++OXXXXXOOOOO++++++++++++++++....OOOOOO.OOO++++++++@@@",
"@@+++++++++XXX++OOXXXXXOOO+++++++++++++++++....OOOOOOOOOO+++++++++@@",
"@@++++++++XXXXX+OOXXXXXO+++++++++++++++++++....OOOOOOOOOO+++++++++@@",
"@+++++++++XXXXX+OOXXXXX++++++++++++++++++++....OOOOOOOOO+++++++++++@",
"@++++++++++XXX++OOXXXXX++++++++++++++++++++.....OOOOOOOO+++++++++++@",
"@+++++++++++++++XXXXXXX++++ooooooo+++++++++.....OOOOOOOO+++++++++++@",
"@+++++++++++++XXXX+XXXX+++++oooooo++++++++++.....OOOOOO++++++++++++@",
"++++++++++++XXXXOO+XXXX+++++++oooo++++++++++......OOOO..++++++++++++",
"+++++++++++XXXX+OO+XXXX+++++++oooo++++++++++O..........+++++++++++++",
"OOOOOOOOOOXXXXOOOOOXXXXOOOOOOOooooOOOOOOOOOOOOO......OOOOOOOOOOOOOOO",
"OOOOOOOOOOXXXXOOOOOXXXXOOOOOOOooooOOOOOOOOOOOOOOOOOOOOOOOOOOOOOOOOOO",
"++++++++++XXXXX+OOXXXXX+++++++oooo++++++++++OO++++++++++++++++++++++",
"++++++++++XXXXXXXXXXXXXXX+++++oooo+ooooo++++OO++++++++++++++++++++++",
"+++++++++++XXXXXOO+XXXXX++++++ooooooooooo+++OO++++++++++++++++++++++",
"++++++++++++++++OO++++++++++++ooooo++ooooo++OO++++++++++++++++++++++",
"++++++++++++++++OO++++++++++++oooo++++oooo++OO++++++++++++++++++++++",
"++++++++++++++++OO++++++++++++oooo++++ooooo+OO++++++++++++++++++++++",
"++++++++++++++++OO++++++++++++oooo+++++oooo+OO++++++++++++++++++++++",
"++++++++++++++++OO++++++++++++oooo+++++oooo+OO++++++++++++++++++++++",
"@+++++++++++++++OO++++++++++++oooo+++++oooo+OO+++++++++++++++++++++@",
"@+++++++++++++++OO++++++++++++oooo+++++oooo+OO+++++++++++++++++++++@",
"@OOOOOOOOOOOOOOOOOOOOOOOOOOOOOooooOOOOOooooOOOOOOOOOOOOOOOOOOOOOOOO@",
"@OOOOOOOOOOOOOOOOOOOOOOOOOOOOOooooOOOOOooooOOOOOOOOOOOOOOOOOOOOOOOO@",
"@@++++++++++++++OO++++++++++++oooo++++oooo++OO++++++++++++++++++++@@",
"@@++++++++++++++OO++++++++++++oooo++++oooo++OO++++++++++++++++++++@@",
"@@@+++++++++++++OO++++++++++++ooooo++oooo+++OO+++++++++++++++++++@@@",
"@@@+++++++++++++OO++++++++++++o++oooooo+++++OO+++++++++++++++++++@@@",
"@@@+++++++++++++OO++++++++++++++++++++++++++OO+++++++++++++++++++@@@",
"@@@@++++++++++++OO++++++++++++++++++++++++++OO++++++++++++++++++@@@@",
"@@@@@+++++++++++OO++++++++++++++++++++++++++OO+++++++++++++++++@@@@@",
"@@@@@+++++++++++OO++++++++++++++++++++++++++OO+++++++++++++++++@@@@@",
"@@@@@@++++++++++OO++++++++++++++++++++++++++OO++++++++++++++++@@@@@@",
"@@@@@@@+++++++++OO++++++++++++++++++++++++++OO+++++++++++++++@@@@@@@",
"@@@@@@@+++++++++OO++++++++++++++++++++++++++OO+++++++++++++++@@@@@@@",
"@@@@@@@@OOOOOOOOOOOOOOOOOOOOOOOOOOOOOOOOOOOOOOOOOOOOOOOOOOOO@@@@@@@@",
"@@@@@@@@@OOOOOOOOOOOOOOOOOOOOOOOOOOOOOOOOOOOOOOOOOOOOOOOOOO@@@@@@@@@",
"@@@@@@@@@@++++++OOOOOOOOOOOOOOOO++++++++++++OO++++++++++++@@@@@@@@@@",
"@@@@@@@@@@@+++++OOOOOOOOOOOOOOOOOOOOOO++++++OO+++++++++++@@@@@@@@@@@",
"@@@@@@@@@@@@++++OOOOOOOOOOOOOOOOOOOOOOOOOOOOOO++++++++++@@@@@@@@@@@@",
"@@@@@@@@@@@@@@++OOOOOOOOOOOOOOOOOOOOOOOOOOOOOO++++++++@@@@@@@@@@@@@@",
"@@@@@@@@@@@@@@@+++++OOOOOOOOOOOOOOOOOOOOOOOOOO+++++++@@@@@@@@@@@@@@@",
"@@@@@@@@@@@@@@@@@+++++++++OOOOOOOOOOOOOOOOOOOO+++++@@@@@@@@@@@@@@@@@",
"@@@@@@@@@@@@@@@@@@@+++++++++++++OOOOOOOOOOOOOO+++@@@@@@@@@@@@@@@@@@@",
"@@@@@@@@@@@@@@@@@@@@@+++++++++++++++++OOOOOOOO+@@@@@@@@@@@@@@@@@@@@@",
"@@@@@@@@@@@@@@@@@@@@@@@@++++++++++++++++++++@@@@@@@@@@@@@@@@@@@@@@@@",
"@@@@@@@@@@@@@@@@@@@@@@@@@@@@++++++++++++@@@@@@@@@@@@@@@@@@@@@@@@@@@@"
};
